<svg xmlns="http://www.w3.org/2000/svg" width="26" height="26" viewBox="0 0 26 26" fill="none">
<path d="M22.5833 5.01183H2V7.1785H4.49167L8.045 16.9285C8.26851 17.5607 8.68208 18.1082 9.22901 18.4961C9.77595 18.884 10.4295 19.0933 11.1 19.0952H20.4167V16.9285H11.1C10.8774 16.9284 10.6602 16.8597 10.4779 16.7318C10.2957 16.6038 10.1574 16.4229 10.0817 16.2135L9.58333 14.7618H19.6367C20.1069 14.7612 20.5641 14.6075 20.9393 14.3242C21.3145 14.0408 21.5874 13.6431 21.7167 13.191L23.6667 6.38766C23.7107 6.2454 23.7249 6.09559 23.7085 5.94758C23.692 5.79958 23.6452 5.65655 23.571 5.52744C23.4968 5.39833 23.3968 5.28591 23.2771 5.19719C23.1575 5.10848 23.0209 5.04538 22.8758 5.01183C22.779 4.99606 22.6802 4.99606 22.5833 5.01183ZM19.6042 12.5952H8.77083L6.79917 7.1785H21.1425L19.6042 12.5952Z" fill="#5E6775"/>
<path d="M11.375 22.75C12.2725 22.75 13 22.0225 13 21.125C13 20.2275 12.2725 19.5 11.375 19.5C10.4775 19.5 9.75 20.2275 9.75 21.125C9.75 22.0225 10.4775 22.75 11.375 22.75Z" fill="#5E6775"/>
<path d="M17.875 22.75C18.7725 22.75 19.5 22.0225 19.5 21.125C19.5 20.2275 18.7725 19.5 17.875 19.5C16.9775 19.5 16.25 20.2275 16.25 21.125C16.25 22.0225 16.9775 22.75 17.875 22.75Z" fill="#5E6775"/>
</svg>